<svg xmlns="http://www.w3.org/2000/svg" viewBox="0 0 500 500"><g id="freepik--background-simple--inject-67"><path d="M475.79,277.05c-13.49,40.89-42.56,85.72-85.35,100.31C325.8,399.42,320,452.43,202.71,452.07a236.91,236.91,0,0,1-50.94-5.47,197.3,197.3,0,0,1-24.12-7c-69.5-25.07-107.55-84.69-113-148.4-7.15-83.8,49.87-126.07,87-151s79.53-117.45,194.87-118a228.73,228.73,0,0,1,52.35,5.59c39.16,9,79.46,30.67,103.67,63.7,1.81,2.48,3.55,5,5.23,7.62C490.46,149.94,494.19,221.29,475.79,277.05Z" style="fill:#FFFFFF"></path><path d="M475.79,277.05c-13.49,40.89-42.56,85.72-85.35,100.31C325.8,399.42,320,452.43,202.71,452.07a236.91,236.91,0,0,1-50.94-5.47,197.3,197.3,0,0,1-24.12-7c-69.5-25.07-107.55-84.69-113-148.4-7.15-83.8,49.87-126.07,87-151s79.53-117.45,194.87-118a228.73,228.73,0,0,1,52.35,5.59c39.16,9,79.46,30.67,103.67,63.7,1.81,2.48,3.55,5,5.23,7.62C490.46,149.94,494.19,221.29,475.79,277.05Z" style="fill:#fff;opacity:0.7000000000000001"></path></g><g id="freepik--Asterisks--inject-67"><path d="M41.82,209.72,40.61,209l1.52-2.12L39.87,206l.49-1.31,2.17,1.15-.23-2.64h1.55l-.25,2.64,2.18-1.15.48,1.31-2.26.88,1.53,2.1-1.24.73-1.23-2.39Z" style="fill:#263238"></path><path d="M49.44,209.72,48.23,209l1.51-2.12L47.49,206,48,204.7l2.17,1.15-.23-2.64h1.55l-.25,2.64,2.18-1.15.48,1.31-2.26.88,1.53,2.1-1.24.73-1.23-2.39Z" style="fill:#263238"></path><path d="M57.06,209.72,55.85,209l1.51-2.12L55.1,206l.5-1.31,2.16,1.15-.23-2.64h1.56l-.25,2.64L61,204.7,61.5,206l-2.26.88,1.53,2.1-1.24.73-1.23-2.39Z" style="fill:#263238"></path><path d="M64.68,209.72,63.47,209,65,206.87,62.72,206l.5-1.31,2.16,1.15-.23-2.64H66.7l-.25,2.64,2.19-1.15.48,1.31-2.26.88,1.53,2.1-1.25.73-1.22-2.39Z" style="fill:#263238"></path><path d="M72.29,209.72l-1.2-.73,1.51-2.12L70.34,206l.5-1.31L73,205.85l-.23-2.64h1.55l-.25,2.64,2.19-1.15.47,1.31-2.25.88L76,209l-1.25.73-1.22-2.39Z" style="fill:#263238"></path><path d="M79.91,209.72l-1.2-.73,1.51-2.12L78,206l.5-1.31,2.16,1.15-.23-2.64h1.55l-.25,2.64,2.19-1.15.47,1.31-2.26.88,1.54,2.1-1.25.73-1.22-2.39Z" style="fill:#263238"></path><path d="M87.53,209.72,86.32,209l1.52-2.12L85.58,206l.5-1.31,2.16,1.15L88,203.21h1.55l-.25,2.64,2.18-1.15L92,206l-2.26.88,1.53,2.1-1.24.73-1.22-2.39Z" style="fill:#263238"></path><path d="M95.15,209.72,93.94,209l1.52-2.12L93.2,206l.49-1.31,2.17,1.15-.23-2.64h1.55l-.25,2.64,2.18-1.15.48,1.31-2.26.88,1.53,2.1-1.24.73-1.23-2.39Z" style="fill:#263238"></path><path d="M102.77,209.72l-1.21-.73,1.51-2.12-2.25-.86.49-1.31,2.17,1.15-.23-2.64h1.55l-.25,2.64,2.18-1.15.48,1.31-2.26.88,1.53,2.1-1.24.73L104,207.33Z" style="fill:#263238"></path><path d="M170.81,46.75,169.6,46l1.51-2.13L168.85,43l.5-1.3,2.16,1.15-.23-2.65h1.56l-.25,2.65,2.18-1.15.48,1.3-2.26.88L174.52,46l-1.24.72-1.23-2.39Z" style="fill:#263238"></path><path d="M178.42,46.75l-1.2-.72,1.51-2.13L176.47,43l.5-1.3,2.16,1.15-.23-2.65h1.55l-.25,2.65,2.19-1.15.48,1.3-2.26.88L182.14,46l-1.25.72-1.22-2.39Z" style="fill:#263238"></path><path d="M186,46.75l-1.2-.72,1.51-2.13L184.09,43l.5-1.3,2.16,1.15-.23-2.65h1.55l-.25,2.65L190,41.74l.47,1.3-2.26.88L189.76,46l-1.25.72-1.22-2.39Z" style="fill:#263238"></path><path d="M193.66,46.75l-1.2-.72L194,43.9,191.71,43l.5-1.3,2.16,1.15-.23-2.65h1.55l-.25,2.65,2.18-1.15.48,1.3-2.26.88L197.37,46l-1.24.72-1.22-2.39Z" style="fill:#263238"></path><path d="M201.28,46.75,200.07,46l1.52-2.13L199.33,43l.5-1.3L202,42.89l-.23-2.65h1.55l-.25,2.65,2.18-1.15.48,1.3-2.26.88L205,46l-1.24.72-1.23-2.39Z" style="fill:#263238"></path><path d="M208.9,46.75,207.69,46l1.52-2.13L207,43l.49-1.3,2.17,1.15-.23-2.65h1.55l-.25,2.65,2.18-1.15.48,1.3-2.26.88L212.61,46l-1.24.72-1.23-2.39Z" style="fill:#263238"></path><path d="M216.52,46.75,215.31,46l1.51-2.13L214.57,43l.49-1.3,2.17,1.15L217,40.24h1.55l-.25,2.65,2.18-1.15L221,43l-2.26.88L220.23,46l-1.24.72-1.23-2.39Z" style="fill:#263238"></path><path d="M224.14,46.75,222.93,46l1.51-2.13L222.18,43l.5-1.3,2.16,1.15-.23-2.65h1.56l-.25,2.65,2.18-1.15.48,1.3-2.26.88L227.85,46l-1.24.72-1.23-2.39Z" style="fill:#263238"></path><path d="M231.76,46.75,230.55,46l1.51-2.13L229.8,43l.5-1.3,2.16,1.15-.23-2.65h1.55l-.24,2.65,2.18-1.15.48,1.3-2.26.88L235.47,46l-1.25.72L233,44.36Z" style="fill:#263238"></path><path d="M403.83,146.73l-1.2-.73,1.51-2.13-2.26-.86.5-1.3,2.16,1.15-.23-2.64h1.55l-.25,2.64,2.19-1.15.47,1.3-2.25.89,1.53,2.1-1.25.73-1.22-2.4Z" style="fill:#263238"></path><path d="M411.45,146.73l-1.2-.73,1.51-2.13L409.5,143l.5-1.3,2.16,1.15-.23-2.64h1.55l-.25,2.64,2.19-1.15.47,1.3-2.26.89,1.54,2.1-1.25.73-1.22-2.4Z" style="fill:#263238"></path><path d="M419.07,146.73l-1.21-.73,1.52-2.13-2.26-.86.5-1.3,2.16,1.15-.23-2.64h1.55l-.25,2.64,2.18-1.15.48,1.3-2.26.89,1.53,2.1-1.24.73-1.22-2.4Z" style="fill:#263238"></path><path d="M426.69,146.73l-1.21-.73,1.52-2.13-2.26-.86.49-1.3,2.17,1.15-.23-2.64h1.55l-.25,2.64,2.18-1.15.48,1.3-2.26.89,1.53,2.1-1.24.73-1.23-2.4Z" style="fill:#263238"></path><path d="M434.31,146.73,433.1,146l1.51-2.13-2.25-.86.49-1.3,2.17,1.15-.23-2.64h1.55l-.25,2.64,2.18-1.15.48,1.3-2.26.89L438,146l-1.24.73-1.23-2.4Z" style="fill:#263238"></path><path d="M441.93,146.73l-1.21-.73,1.51-2.13L440,143l.49-1.3,2.17,1.15-.23-2.64H444l-.25,2.64,2.18-1.15.48,1.3-2.26.89,1.53,2.1-1.24.73-1.23-2.4Z" style="fill:#263238"></path><path d="M449.55,146.73l-1.21-.73,1.51-2.13-2.26-.86.5-1.3,2.16,1.15-.23-2.64h1.56l-.25,2.64,2.18-1.15L454,143l-2.26.89,1.53,2.1-1.24.73-1.23-2.4Z" style="fill:#263238"></path><path d="M457.16,146.73,456,146l1.51-2.13-2.26-.86.5-1.3,2.16,1.15-.23-2.64h1.55l-.25,2.64,2.19-1.15.48,1.3-2.26.89,1.53,2.1-1.25.73-1.22-2.4Z" style="fill:#263238"></path><path d="M464.78,146.73l-1.2-.73,1.51-2.13-2.26-.86.5-1.3,2.16,1.15-.23-2.64h1.55l-.25,2.64,2.19-1.15.47,1.3-2.25.89,1.53,2.1-1.25.73-1.22-2.4Z" style="fill:#263238"></path></g><g id="freepik--user-icons--inject-67"><path d="M73,183.09a24.28,24.28,0,0,1-24.28-24.27A24.27,24.27,0,1,1,73,183.09Zm0-47.55a23.31,23.31,0,0,0-23.28,23.28A23.3,23.3,0,0,0,73,182.09a23.28,23.28,0,1,0,0-46.55Z" style="fill:#263238"></path><path d="M73,165.52a10.43,10.43,0,1,1,10.43-10.43A10.44,10.44,0,0,1,73,165.52Zm0-19.85a9.43,9.43,0,1,0,9.43,9.42A9.44,9.44,0,0,0,73,145.67Z" style="fill:#263238"></path><path d="M73,183.09a24,24,0,0,1-15-5.19.48.48,0,0,1-.17-.5,15.53,15.53,0,0,1,30.34,0,.5.5,0,0,1-.18.5A24.24,24.24,0,0,1,73,183.09Zm-14.13-5.78A23,23,0,0,0,73,182.09a23.22,23.22,0,0,0,14.12-4.78,14.53,14.53,0,0,0-28.25,0Z" style="fill:#263238"></path><path d="M440.7,428.74a24.28,24.28,0,0,1-24.28-24.27,24.27,24.27,0,1,1,24.28,24.27Zm0-47.55a23.31,23.31,0,0,0-23.28,23.28,23.28,23.28,0,0,0,46.56,0A23.3,23.3,0,0,0,440.7,381.19Z" style="fill:#263238"></path><path d="M440.7,411.17a10.43,10.43,0,1,1,10.43-10.43A10.44,10.44,0,0,1,440.7,411.17Zm0-19.86a9.43,9.43,0,1,0,9.43,9.43A9.44,9.44,0,0,0,440.7,391.31Z" style="fill:#263238"></path><path d="M440.7,428.74a24,24,0,0,1-15-5.19.5.5,0,0,1-.18-.5,15.54,15.54,0,0,1,30.35,0,.5.5,0,0,1-.18.5A24.24,24.24,0,0,1,440.7,428.74ZM426.57,423a23,23,0,0,0,14.13,4.78A23.31,23.31,0,0,0,454.82,423a14.53,14.53,0,0,0-28.25,0Z" style="fill:#263238"></path></g><g id="freepik--Padlocks--inject-67"><path d="M454.77,124.41H415.6a.51.51,0,0,1-.5-.5V85.6a.5.5,0,0,1,.5-.5h39.17a.5.5,0,0,1,.5.5v38.31A.51.51,0,0,1,454.77,124.41Zm-38.67-1h38.17V86.1H416.1Z" style="fill:#263238"></path><path d="M453.78,86.11h-6.7V76.8a11.9,11.9,0,1,0-23.79,0v9.31h-6.7V76.8a18.6,18.6,0,1,1,37.19,0Zm-5.7-1h4.7V76.8a17.6,17.6,0,1,0-35.19,0v8.31h4.7V76.8a12.9,12.9,0,1,1,25.79,0Z" style="fill:#263238"></path><path d="M436.82,114.06h-3.27a.5.5,0,0,1-.5-.5V105a5,5,0,1,1,4.27,0v8.59A.5.5,0,0,1,436.82,114.06Zm-2.77-1h2.27v-8.42a.51.51,0,0,1,.32-.47,4,4,0,1,0-2.91,0,.51.51,0,0,1,.32.47Z" style="fill:#263238"></path><path d="M91.67,440.39H52.5a.5.5,0,0,1-.5-.5V401.58a.51.51,0,0,1,.5-.5H91.67a.51.51,0,0,1,.5.5v38.31A.5.5,0,0,1,91.67,440.39Zm-38.67-1H91.17V402.08H53Z" style="fill:#263238"></path><path d="M90.68,402.1H84v-9.32a11.9,11.9,0,0,0-23.79,0v9.32h-6.7v-9.32a18.6,18.6,0,0,1,37.19,0Zm-5.7-1h4.7v-8.32a17.6,17.6,0,0,0-35.19,0v8.32h4.7v-8.32a12.9,12.9,0,0,1,25.79,0Z" style="fill:#263238"></path><path d="M73.72,430H70.45a.5.5,0,0,1-.5-.5V421a5,5,0,0,1-2.87-4.51,5,5,0,1,1,10,0A5,5,0,0,1,74.22,421v8.59A.5.5,0,0,1,73.72,430ZM71,429h2.27v-8.41a.51.51,0,0,1,.32-.47,4,4,0,1,0-2.91,0,.51.51,0,0,1,.32.47Z" style="fill:#263238"></path></g><g id="freepik--Device--inject-67"><polygon points="373.66 122.5 373.66 109.58 365.12 109.58 128.2 346.49 128.2 367.96 373.66 122.5" style="fill:#fff"></polygon><polygon points="128.2 176.83 128.2 261 279.63 109.58 195.45 109.58 128.2 176.83" style="fill:#fff"></polygon><polygon points="337.12 434.5 373.66 397.96 373.66 313.79 252.95 434.5 337.12 434.5" style="fill:#fff"></polygon><rect x="110.57" y="86.24" width="280.72" height="371.6" rx="10.21" style="fill:#263238"></rect><rect x="128.2" y="109.58" width="245.46" height="324.93" style="fill:#FFFFFF"></rect><polygon points="110.57 143.21 110.57 247.17 271.5 86.24 167.54 86.24 110.57 143.21" style="fill:#fff;opacity:0.2"></polygon><path d="M391.29,98.57V95.31a9.07,9.07,0,0,0-9.07-9.07H377.1L110.57,352.77v26.52Z" style="fill:#fff;opacity:0.2"></path><polygon points="391.29 438.81 391.29 334.85 268.29 457.84 372.26 457.84 391.29 438.81" style="fill:#fff;opacity:0.2"></polygon><rect x="193.37" y="237.37" width="115.11" height="19.52" style="fill:#fff"></rect><path d="M308.49,257.39H193.37a.5.5,0,0,1-.5-.5V237.37a.51.51,0,0,1,.5-.5H308.49a.51.51,0,0,1,.5.5v19.52A.5.5,0,0,1,308.49,257.39Zm-114.62-1H308V237.87H193.87Z" style="fill:#263238"></path><rect x="193.37" y="273.72" width="115.11" height="19.52" style="fill:#fff"></rect><path d="M308.49,293.75H193.37a.51.51,0,0,1-.5-.5V273.72a.51.51,0,0,1,.5-.5H308.49a.51.51,0,0,1,.5.5v19.53A.51.51,0,0,1,308.49,293.75Zm-114.62-1H308V274.22H193.87Z" style="fill:#263238"></path><rect x="219.6" y="310.31" width="62.65" height="19.52" rx="4.84" style="fill:#263238"></rect><path d="M277.41,330.33h-53A5.35,5.35,0,0,1,219.1,325v-9.84a5.35,5.35,0,0,1,5.35-5.34h53a5.34,5.34,0,0,1,5.34,5.34V325A5.35,5.35,0,0,1,277.41,330.33Zm-53-19.52a4.35,4.35,0,0,0-4.35,4.34V325a4.35,4.35,0,0,0,4.35,4.34h53a4.34,4.34,0,0,0,4.34-4.34v-9.84a4.34,4.34,0,0,0-4.34-4.34Z" style="fill:#263238"></path><path d="M270.7,175.83A19.8,19.8,0,1,1,250.91,156,19.72,19.72,0,0,1,270.7,175.83Z" style="fill:#fff"></path><path d="M250.91,196.12a20.3,20.3,0,1,1,12.52-4.33A20.28,20.28,0,0,1,250.91,196.12Zm0-39.59A19.29,19.29,0,0,0,239,191a19,19,0,0,0,11.93,4.12,19.3,19.3,0,0,0,0-38.59Z" style="fill:#263238"></path><circle cx="250.9" cy="172.73" r="8.27" transform="translate(-48.65 228.01) rotate(-45)" style="fill:#263238"></circle><path d="M250.9,181.5a8.77,8.77,0,1,1,8.77-8.77A8.77,8.77,0,0,1,250.9,181.5Zm0-16.53a7.77,7.77,0,1,0,7.77,7.76A7.77,7.77,0,0,0,250.9,165Z" style="fill:#263238"></path><path d="M263.13,191.39a19.74,19.74,0,0,1-24.45,0,12.52,12.52,0,0,1,24.45,0Z" style="fill:#263238"></path><path d="M250.91,196.12a20.28,20.28,0,0,1-12.54-4.34.49.49,0,0,1-.18-.49,13,13,0,0,1,25.42,0,.48.48,0,0,1-.17.49A20.31,20.31,0,0,1,250.91,196.12Zm-11.68-4.93a19,19,0,0,0,11.68,3.93,19.3,19.3,0,0,0,11.66-3.93,12,12,0,0,0-23.34,0Z" style="fill:#263238"></path><path d="M239,218.44v-8.63h1.58v7.54h2.09v1.09Z" style="fill:#263238"></path><path d="M245.77,218.56a2.83,2.83,0,0,1-1.47-.34,1.89,1.89,0,0,1-.77-1,4.33,4.33,0,0,1-.24-1.52v-3.23a4.21,4.21,0,0,1,.24-1.5,1.82,1.82,0,0,1,.77-1,3.44,3.44,0,0,1,2.94,0,1.88,1.88,0,0,1,.78,1,4.21,4.21,0,0,1,.24,1.5v3.24a4.21,4.21,0,0,1-.24,1.5,2,2,0,0,1-.78,1A2.71,2.71,0,0,1,245.77,218.56Zm0-1.16a.87.87,0,0,0,.58-.17,1,1,0,0,0,.25-.47,3.34,3.34,0,0,0,.06-.65v-4a3.2,3.2,0,0,0-.06-.65.9.9,0,0,0-.25-.45.87.87,0,0,0-.58-.17.86.86,0,0,0-.57.17.84.84,0,0,0-.26.45,3.2,3.2,0,0,0-.06.65v4a3.34,3.34,0,0,0,.06.65.83.83,0,0,0,.25.47A.87.87,0,0,0,245.77,217.4Z" style="fill:#263238"></path><path d="M251.59,218.56a2.31,2.31,0,0,1-1.36-.36,2.1,2.1,0,0,1-.72-1,5.29,5.29,0,0,1-.22-1.58V212.7a5,5,0,0,1,.22-1.6,1.85,1.85,0,0,1,.75-1,2.65,2.65,0,0,1,1.49-.36,2.82,2.82,0,0,1,1.4.3,1.66,1.66,0,0,1,.75.86,3.42,3.42,0,0,1,.23,1.36v.44h-1.5v-.49a3.69,3.69,0,0,0-.06-.71.8.8,0,0,0-.23-.45,1.06,1.06,0,0,0-1.18,0,1,1,0,0,0-.23.54,5.31,5.31,0,0,0-.05.72v3.62a3.5,3.5,0,0,0,.08.77,1,1,0,0,0,.27.51.86.86,0,0,0,.58.18.83.83,0,0,0,.59-.2,1.07,1.07,0,0,0,.28-.53,3.83,3.83,0,0,0,.08-.81v-.81h-.93v-1h2.35v4.38h-1l-.11-.85a1.81,1.81,0,0,1-.52.7A1.5,1.5,0,0,1,251.59,218.56Z" style="fill:#263238"></path><path d="M255.42,218.44v-8.63H257v8.63Z" style="fill:#263238"></path><path d="M258.31,218.44v-8.63h1.1l2.1,4.92v-4.92h1.3v8.63h-1l-2.12-5.16v5.16Z" style="fill:#263238"></path><path d="M232.35,252.11a2.34,2.34,0,0,1-1.43-.38,1.78,1.78,0,0,1-.69-1,6.13,6.13,0,0,1-.18-1.58v-5.72h1.15v5.77a6.4,6.4,0,0,0,.08,1,1.41,1.41,0,0,0,.32.72,1,1,0,0,0,.75.27,1,1,0,0,0,.76-.27,1.41,1.41,0,0,0,.32-.72,6.4,6.4,0,0,0,.08-1v-5.77h1.14v5.72a6.13,6.13,0,0,1-.18,1.58,1.86,1.86,0,0,1-.68,1A2.35,2.35,0,0,1,232.35,252.11Z" style="fill:#ccc"></path><path d="M238,252.11a2.26,2.26,0,0,1-1.24-.32,2,2,0,0,1-.75-.89,3.66,3.66,0,0,1-.3-1.31l1.07-.29a4.35,4.35,0,0,0,.14.89,1.57,1.57,0,0,0,.37.7,1.08,1.08,0,0,0,1.42,0,1.09,1.09,0,0,0,.24-.75,1.53,1.53,0,0,0-.27-1,4.41,4.41,0,0,0-.67-.72l-1.45-1.28a2.62,2.62,0,0,1-.63-.81,2.72,2.72,0,0,1-.2-1.09,2,2,0,0,1,.54-1.48,2.11,2.11,0,0,1,1.49-.52,2.74,2.74,0,0,1,.9.14,1.48,1.48,0,0,1,.65.41,2,2,0,0,1,.41.69,3.83,3.83,0,0,1,.21,1l-1,.28a4.49,4.49,0,0,0-.13-.79,1.14,1.14,0,0,0-.34-.57,1.15,1.15,0,0,0-1.38,0,.93.93,0,0,0-.25.71,1.39,1.39,0,0,0,.13.65,1.94,1.94,0,0,0,.43.52l1.46,1.28a4.34,4.34,0,0,1,.87,1,2.63,2.63,0,0,1,.37,1.4,2.14,2.14,0,0,1-.27,1.1,1.72,1.72,0,0,1-.73.71A2.17,2.17,0,0,1,238,252.11Z" style="fill:#ccc"></path><path d="M241,252v-8.63h3.34v.89h-2.14v2.86h1.74V248h-1.74v3.17h2.17V252Z" style="fill:#ccc"></path><path d="M245.3,252v-8.63H247a3.69,3.69,0,0,1,1.43.23,1.55,1.55,0,0,1,.84.73,2.83,2.83,0,0,1,.27,1.33,3.66,3.66,0,0,1-.11.91,1.72,1.72,0,0,1-.34.69,1.24,1.24,0,0,1-.62.41l1.23,4.33h-1.16l-1.13-4h-.94v4Zm1.2-4.91H247a2.37,2.37,0,0,0,.83-.13.88.88,0,0,0,.47-.44,2,2,0,0,0,.15-.86,1.66,1.66,0,0,0-.28-1.09,1.36,1.36,0,0,0-1.1-.34h-.53Z" style="fill:#ccc"></path><path d="M250.83,252v-8.63h.82l2.45,5.73v-5.73h1V252h-.76l-2.49-5.89V252Z" style="fill:#ccc"></path><path d="M256,252l1.83-8.63H259l1.85,8.63h-1.14l-.4-2.17h-1.76l-.41,2.17Zm1.7-3h1.44l-.72-3.89Z" style="fill:#ccc"></path><path d="M261.68,252l.16-8.63H263l1.53,7,1.53-7h1.17l.16,8.63h-1l-.09-6.27L264.89,252h-.68l-1.45-6.27-.1,6.27Z" style="fill:#ccc"></path><path d="M268.74,252v-8.63h3.34v.89h-2.14v2.86h1.74V248h-1.74v3.17h2.17V252Z" style="fill:#ccc"></path><path d="M229.29,287.73V279.1h2.14a2.32,2.32,0,0,1,1.24.28,1.62,1.62,0,0,1,.68.82,3.48,3.48,0,0,1,.21,1.29,2.7,2.7,0,0,1-.24,1.18,1.74,1.74,0,0,1-.7.77,2.37,2.37,0,0,1-1.18.27h-.95v4Zm1.2-4.88h.56a2.25,2.25,0,0,0,.82-.12.72.72,0,0,0,.43-.41,2.22,2.22,0,0,0,.12-.82,3.84,3.84,0,0,0-.09-.95.66.66,0,0,0-.38-.46,2.42,2.42,0,0,0-.89-.13h-.57Z" style="fill:#ccc"></path><path d="M233.53,287.73l1.84-8.63h1.16l1.84,8.63h-1.14l-.39-2.17h-1.76l-.42,2.17Zm1.71-3h1.44l-.73-3.89Z" style="fill:#ccc"></path><path d="M241.28,287.83a2.26,2.26,0,0,1-1.24-.32,2,2,0,0,1-.75-.88,3.77,3.77,0,0,1-.3-1.32l1.07-.28a5,5,0,0,0,.14.88,1.68,1.68,0,0,0,.37.7.93.93,0,0,0,.71.27.92.92,0,0,0,.71-.26,1.07,1.07,0,0,0,.24-.75,1.55,1.55,0,0,0-.27-.95,5.4,5.4,0,0,0-.67-.72l-1.45-1.27a2.54,2.54,0,0,1-.63-.82A2.69,2.69,0,0,1,239,281a1.92,1.92,0,0,1,.55-1.47A2,2,0,0,1,241,279a2.74,2.74,0,0,1,.9.14,1.57,1.57,0,0,1,.65.41,2,2,0,0,1,.41.7,3.46,3.46,0,0,1,.21,1l-1,.28a4.37,4.37,0,0,0-.13-.78,1.17,1.17,0,0,0-.34-.58,1.15,1.15,0,0,0-1.38,0,.93.93,0,0,0-.25.71,1.39,1.39,0,0,0,.13.65,1.8,1.8,0,0,0,.43.52l1.46,1.28a4.79,4.79,0,0,1,.87,1,2.57,2.57,0,0,1,.37,1.4,2.17,2.17,0,0,1-.27,1.11,1.76,1.76,0,0,1-.73.7A2.17,2.17,0,0,1,241.28,287.83Z" style="fill:#ccc"></path><path d="M246.32,287.83a2.28,2.28,0,0,1-1.24-.32,2,2,0,0,1-.75-.88,3.77,3.77,0,0,1-.3-1.32l1.07-.28a5,5,0,0,0,.14.88,1.68,1.68,0,0,0,.37.7.93.93,0,0,0,.71.27.92.92,0,0,0,.71-.26,1.07,1.07,0,0,0,.24-.75,1.62,1.62,0,0,0-.26-.95,7.16,7.16,0,0,0-.67-.72l-1.45-1.27a2.29,2.29,0,0,1-.63-.82,2.52,2.52,0,0,1-.21-1.09,1.92,1.92,0,0,1,.55-1.47,2,2,0,0,1,1.48-.53,2.74,2.74,0,0,1,.9.14,1.51,1.51,0,0,1,.65.41,2.17,2.17,0,0,1,.42.7,3.86,3.86,0,0,1,.2,1l-1,.28a3.63,3.63,0,0,0-.13-.78,1.15,1.15,0,0,0-.33-.58,1,1,0,0,0-.69-.22,1,1,0,0,0-.7.24.93.93,0,0,0-.25.71,1.39,1.39,0,0,0,.13.65,1.85,1.85,0,0,0,.44.52l1.46,1.28a5,5,0,0,1,.86,1,2.57,2.57,0,0,1,.37,1.4,2.28,2.28,0,0,1-.26,1.11,1.89,1.89,0,0,1-.73.7A2.21,2.21,0,0,1,246.32,287.83Z" style="fill:#ccc"></path><path d="M250.45,287.73,249,279.1h1l.93,6.2,1.16-6.17H253l1.17,6.21.91-6.24h1l-1.39,8.63h-.87l-1.21-6.39-1.21,6.39Z" style="fill:#ccc"></path><path d="M259.22,287.83a2.47,2.47,0,0,1-1.39-.34,1.86,1.86,0,0,1-.75-1,4.43,4.43,0,0,1-.22-1.48v-3.28a4,4,0,0,1,.23-1.46,1.84,1.84,0,0,1,.74-.94,2.58,2.58,0,0,1,1.39-.33,2.62,2.62,0,0,1,1.39.33,1.88,1.88,0,0,1,.74.94,4.22,4.22,0,0,1,.23,1.46V285a4.36,4.36,0,0,1-.23,1.47,1.91,1.91,0,0,1-.74,1A2.44,2.44,0,0,1,259.22,287.83Zm0-.95a1.11,1.11,0,0,0,.73-.2,1,1,0,0,0,.33-.55,4.13,4.13,0,0,0,.08-.84v-3.78a4,4,0,0,0-.08-.83.93.93,0,0,0-.33-.53,1.5,1.5,0,0,0-1.46,0,.88.88,0,0,0-.33.53,3.34,3.34,0,0,0-.09.83v3.78a3.49,3.49,0,0,0,.09.84.94.94,0,0,0,.33.55A1.11,1.11,0,0,0,259.22,286.88Z" style="fill:#ccc"></path><path d="M262.76,287.73V279.1h1.74a3.89,3.89,0,0,1,1.43.23,1.67,1.67,0,0,1,.84.73,2.83,2.83,0,0,1,.27,1.33,3.6,3.6,0,0,1-.11.91,1.7,1.7,0,0,1-.34.7,1.44,1.44,0,0,1-.62.41l1.23,4.32H266l-1.13-4.05H264v4.05Zm1.21-4.91h.45a2.21,2.21,0,0,0,.84-.13.84.84,0,0,0,.47-.44,2,2,0,0,0,.14-.86,1.74,1.74,0,0,0-.27-1.09,1.38,1.38,0,0,0-1.1-.34H264Z" style="fill:#ccc"></path><path d="M268.29,287.73V279.1h1.88a3.37,3.37,0,0,1,1.52.29,1.72,1.72,0,0,1,.8.88,3.88,3.88,0,0,1,.24,1.46v3.18a4.29,4.29,0,0,1-.24,1.54,1.86,1.86,0,0,1-.78,1,2.74,2.74,0,0,1-1.44.32Zm1.21-.86h.68a1.39,1.39,0,0,0,.94-.26,1.14,1.14,0,0,0,.33-.74,10,10,0,0,0,.06-1.19v-2.8a5.45,5.45,0,0,0-.08-1.09.88.88,0,0,0-.38-.6,1.62,1.62,0,0,0-.9-.2h-.65Z" style="fill:#ccc"></path><path d="M238.15,324a2.58,2.58,0,0,1-1.3-.3,1.91,1.91,0,0,1-.79-.89,3.75,3.75,0,0,1-.3-1.44l1.35-.27a4.41,4.41,0,0,0,.13.89,1.19,1.19,0,0,0,.31.59.72.72,0,0,0,.55.21.63.63,0,0,0,.54-.23,1,1,0,0,0,.16-.58,1.57,1.57,0,0,0-.26-.93,4.09,4.09,0,0,0-.68-.72l-1.09-1a3.53,3.53,0,0,1-.73-.88,2.47,2.47,0,0,1-.27-1.2,2.05,2.05,0,0,1,.6-1.58,2.3,2.3,0,0,1,1.63-.55,2.5,2.5,0,0,1,1,.18,1.69,1.69,0,0,1,.65.52,2.15,2.15,0,0,1,.35.75,4.24,4.24,0,0,1,.15.89l-1.34.24a3.83,3.83,0,0,0-.09-.73,1,1,0,0,0-.25-.5.67.67,0,0,0-.51-.18.65.65,0,0,0-.54.23.84.84,0,0,0-.19.57,1.33,1.33,0,0,0,.18.72,2.76,2.76,0,0,0,.53.58l1.07.95a4.36,4.36,0,0,1,.91,1.05,2.59,2.59,0,0,1,.38,1.45A2.21,2.21,0,0,1,240,323a1.89,1.89,0,0,1-.76.75A2.28,2.28,0,0,1,238.15,324Z" style="fill:#e5e5e5"></path><path d="M241.2,323.89v-8.64h1.55v8.64Z" style="fill:#e5e5e5"></path><path d="M246.25,324a2.25,2.25,0,0,1-1.35-.36,1.9,1.9,0,0,1-.72-1A4.88,4.88,0,0,1,244,321v-2.9a5.4,5.4,0,0,1,.21-1.6,1.85,1.85,0,0,1,.75-1,2.76,2.76,0,0,1,1.49-.35,3,3,0,0,1,1.41.29,1.75,1.75,0,0,1,.75.86,3.68,3.68,0,0,1,.23,1.36v.45h-1.51v-.49a4.63,4.63,0,0,0,0-.71.82.82,0,0,0-.24-.46.88.88,0,0,0-.57-.15.75.75,0,0,0-.6.2,1,1,0,0,0-.24.53,5.54,5.54,0,0,0,0,.73v3.61a3.58,3.58,0,0,0,.07.78.91.91,0,0,0,.28.51.86.86,0,0,0,.57.17.82.82,0,0,0,.59-.19,1,1,0,0,0,.28-.53,3.27,3.27,0,0,0,.08-.81v-.81h-.93v-1h2.35v4.38h-1l-.12-.86a1.6,1.6,0,0,1-.52.7A1.48,1.48,0,0,1,246.25,324Z" style="fill:#e5e5e5"></path><path d="M250,323.89v-8.64h1.1l2.1,4.93v-4.93h1.3v8.64h-1l-2.11-5.16v5.16Z" style="fill:#e5e5e5"></path><path d="M258.49,323.89v-8.64H260v8.64Z" style="fill:#e5e5e5"></path><path d="M261.38,323.89v-8.64h1.09l2.1,4.93v-4.93h1.3v8.64h-1l-2.11-5.16v5.16Z" style="fill:#e5e5e5"></path></g></svg>